<?xml version="1.0" encoding="UTF-8" standalone="no"?>
<!DOCTYPE svg PUBLIC "-//W3C//DTD SVG 1.1//EN" "http://www.w3.org/Graphics/SVG/1.1/DTD/svg11.dtd">
<svg width="100%" height="100%" viewBox="0 0 10667 6000" version="1.1" xmlns="http://www.w3.org/2000/svg" xmlns:xlink="http://www.w3.org/1999/xlink" xml:space="preserve" xmlns:serif="http://www.serif.com/" style="fill-rule:evenodd;clip-rule:evenodd;stroke-linecap:round;stroke-linejoin:round;stroke-miterlimit:1.5;">
    <g transform="matrix(5.55556,0,0,5.55556,0,0)">
        <g transform="matrix(1,0,0,1,542,51)">
            <g transform="matrix(48,0,0,48,415.402,422.973)">
                <path d="M0.512,-0.249L0.512,-0.072C0.512,-0.044 0.506,-0.023 0.493,-0.009C0.48,0.005 0.464,0.012 0.443,0.012C0.423,0.012 0.406,0.005 0.394,-0.009C0.381,-0.023 0.375,-0.044 0.375,-0.072L0.375,-0.284C0.375,-0.318 0.374,-0.344 0.372,-0.362C0.369,-0.381 0.363,-0.396 0.353,-0.408C0.343,-0.42 0.327,-0.426 0.305,-0.426C0.262,-0.426 0.233,-0.411 0.219,-0.381C0.205,-0.351 0.198,-0.308 0.198,-0.252L0.198,-0.072C0.198,-0.044 0.192,-0.023 0.179,-0.009C0.167,0.005 0.15,0.012 0.13,0.012C0.11,0.012 0.093,0.005 0.08,-0.009C0.067,-0.023 0.061,-0.044 0.061,-0.072L0.061,-0.453C0.061,-0.478 0.067,-0.497 0.078,-0.51C0.09,-0.523 0.105,-0.53 0.124,-0.53C0.142,-0.53 0.157,-0.524 0.17,-0.511C0.182,-0.499 0.188,-0.482 0.188,-0.461L0.188,-0.448C0.211,-0.476 0.236,-0.496 0.262,-0.509C0.289,-0.522 0.318,-0.529 0.35,-0.529C0.384,-0.529 0.412,-0.522 0.437,-0.509C0.461,-0.495 0.48,-0.475 0.496,-0.448C0.519,-0.476 0.543,-0.496 0.568,-0.509C0.594,-0.522 0.623,-0.529 0.654,-0.529C0.69,-0.529 0.722,-0.522 0.748,-0.507C0.774,-0.493 0.794,-0.472 0.807,-0.446C0.819,-0.422 0.824,-0.384 0.824,-0.332L0.824,-0.072C0.824,-0.044 0.818,-0.023 0.805,-0.009C0.792,0.005 0.776,0.012 0.755,0.012C0.735,0.012 0.718,0.005 0.705,-0.009C0.692,-0.023 0.686,-0.044 0.686,-0.072L0.686,-0.296C0.686,-0.325 0.685,-0.347 0.682,-0.365C0.68,-0.382 0.673,-0.396 0.663,-0.408C0.652,-0.42 0.636,-0.426 0.614,-0.426C0.596,-0.426 0.58,-0.421 0.564,-0.41C0.548,-0.4 0.536,-0.386 0.527,-0.368C0.517,-0.346 0.512,-0.306 0.512,-0.249Z" style="fill-rule:nonzero;"/>
            </g>
            <g transform="matrix(48,0,0,48,457.871,422.973)">
                <path d="M0.568,-0.259C0.568,-0.219 0.562,-0.182 0.549,-0.149C0.537,-0.115 0.519,-0.087 0.496,-0.063C0.472,-0.038 0.444,-0.02 0.412,-0.007C0.379,0.006 0.342,0.012 0.302,0.012C0.261,0.012 0.225,0.006 0.193,-0.007C0.161,-0.02 0.133,-0.039 0.109,-0.063C0.086,-0.087 0.068,-0.116 0.055,-0.149C0.043,-0.182 0.037,-0.219 0.037,-0.259C0.037,-0.299 0.043,-0.336 0.056,-0.37C0.068,-0.403 0.086,-0.432 0.109,-0.456C0.132,-0.479 0.16,-0.498 0.193,-0.51C0.226,-0.523 0.262,-0.53 0.302,-0.53C0.342,-0.53 0.379,-0.523 0.412,-0.51C0.444,-0.497 0.473,-0.479 0.496,-0.455C0.52,-0.431 0.537,-0.402 0.55,-0.369C0.562,-0.335 0.568,-0.299 0.568,-0.259ZM0.434,-0.259C0.434,-0.313 0.422,-0.355 0.398,-0.386C0.374,-0.416 0.342,-0.431 0.302,-0.431C0.276,-0.431 0.253,-0.424 0.233,-0.411C0.213,-0.397 0.198,-0.377 0.187,-0.351C0.176,-0.325 0.171,-0.294 0.171,-0.259C0.171,-0.224 0.176,-0.194 0.187,-0.167C0.197,-0.141 0.212,-0.122 0.232,-0.108C0.252,-0.094 0.275,-0.087 0.302,-0.087C0.342,-0.087 0.374,-0.102 0.398,-0.133C0.422,-0.163 0.434,-0.205 0.434,-0.259Z" style="fill-rule:nonzero;"/>
            </g>
            <g transform="matrix(48,0,0,48,486.863,422.973)">
                <path d="M0.192,-0.652L0.192,-0.448C0.217,-0.474 0.243,-0.494 0.269,-0.508C0.295,-0.522 0.327,-0.529 0.365,-0.529C0.41,-0.529 0.448,-0.518 0.482,-0.497C0.515,-0.476 0.541,-0.446 0.559,-0.406C0.578,-0.366 0.587,-0.319 0.587,-0.264C0.587,-0.224 0.582,-0.187 0.572,-0.153C0.561,-0.119 0.546,-0.09 0.527,-0.065C0.507,-0.041 0.484,-0.022 0.456,-0.008C0.428,0.005 0.397,0.012 0.364,0.012C0.343,0.012 0.324,0.01 0.306,0.005C0.288,-0 0.272,-0.006 0.26,-0.014C0.247,-0.022 0.236,-0.031 0.227,-0.039C0.218,-0.048 0.207,-0.06 0.192,-0.077L0.192,-0.064C0.192,-0.039 0.186,-0.02 0.174,-0.007C0.162,0.006 0.146,0.012 0.128,0.012C0.109,0.012 0.094,0.006 0.083,-0.007C0.072,-0.02 0.066,-0.039 0.066,-0.064L0.066,-0.646C0.066,-0.673 0.071,-0.693 0.082,-0.707C0.093,-0.721 0.108,-0.728 0.128,-0.728C0.148,-0.728 0.164,-0.721 0.175,-0.708C0.186,-0.695 0.192,-0.676 0.192,-0.652ZM0.198,-0.256C0.198,-0.203 0.21,-0.162 0.235,-0.134C0.259,-0.105 0.291,-0.091 0.33,-0.091C0.364,-0.091 0.392,-0.105 0.417,-0.135C0.441,-0.164 0.453,-0.205 0.453,-0.26C0.453,-0.295 0.448,-0.325 0.438,-0.351C0.428,-0.376 0.414,-0.396 0.395,-0.409C0.376,-0.423 0.355,-0.43 0.33,-0.43C0.305,-0.43 0.282,-0.423 0.262,-0.409C0.242,-0.396 0.227,-0.376 0.215,-0.349C0.204,-0.323 0.198,-0.292 0.198,-0.256Z" style="fill-rule:nonzero;"/>
            </g>
            <g transform="matrix(48,0,0,48,516.863,422.973)">
                <path d="M0.202,-0.454L0.202,-0.069C0.202,-0.042 0.196,-0.022 0.183,-0.008C0.17,0.005 0.154,0.012 0.135,0.012C0.115,0.012 0.099,0.005 0.087,-0.009C0.075,-0.023 0.069,-0.043 0.069,-0.069L0.069,-0.45C0.069,-0.477 0.075,-0.496 0.087,-0.51C0.099,-0.523 0.115,-0.53 0.135,-0.53C0.154,-0.53 0.17,-0.523 0.183,-0.51C0.196,-0.496 0.202,-0.478 0.202,-0.454ZM0.136,-0.592C0.118,-0.592 0.102,-0.597 0.089,-0.609C0.075,-0.62 0.069,-0.636 0.069,-0.657C0.069,-0.676 0.076,-0.692 0.089,-0.704C0.103,-0.716 0.118,-0.722 0.136,-0.722C0.153,-0.722 0.169,-0.717 0.182,-0.706C0.195,-0.694 0.202,-0.678 0.202,-0.657C0.202,-0.637 0.196,-0.621 0.183,-0.609C0.17,-0.598 0.154,-0.592 0.136,-0.592Z" style="fill-rule:nonzero;"/>
            </g>
            <g transform="matrix(48,0,0,48,529.871,422.973)">
                <path d="M0.069,-0.069L0.069,-0.647C0.069,-0.674 0.075,-0.694 0.087,-0.708C0.099,-0.721 0.115,-0.728 0.135,-0.728C0.155,-0.728 0.171,-0.721 0.184,-0.708C0.196,-0.694 0.202,-0.674 0.202,-0.647L0.202,-0.069C0.202,-0.042 0.196,-0.022 0.183,-0.008C0.171,0.005 0.155,0.012 0.135,0.012C0.115,0.012 0.099,0.005 0.087,-0.009C0.075,-0.023 0.069,-0.043 0.069,-0.069Z" style="fill-rule:nonzero;"/>
            </g>
            <g transform="matrix(48,0,0,48,542.879,422.973)">
                <path d="M0.202,-0.454L0.202,-0.069C0.202,-0.042 0.196,-0.022 0.183,-0.008C0.17,0.005 0.154,0.012 0.135,0.012C0.115,0.012 0.099,0.005 0.087,-0.009C0.075,-0.023 0.069,-0.043 0.069,-0.069L0.069,-0.45C0.069,-0.477 0.075,-0.496 0.087,-0.51C0.099,-0.523 0.115,-0.53 0.135,-0.53C0.154,-0.53 0.17,-0.523 0.183,-0.51C0.196,-0.496 0.202,-0.478 0.202,-0.454ZM0.136,-0.592C0.118,-0.592 0.102,-0.597 0.089,-0.609C0.075,-0.62 0.069,-0.636 0.069,-0.657C0.069,-0.676 0.076,-0.692 0.089,-0.704C0.103,-0.716 0.118,-0.722 0.136,-0.722C0.153,-0.722 0.169,-0.717 0.182,-0.706C0.195,-0.694 0.202,-0.678 0.202,-0.657C0.202,-0.637 0.196,-0.621 0.183,-0.609C0.17,-0.598 0.154,-0.592 0.136,-0.592Z" style="fill-rule:nonzero;"/>
            </g>
            <g transform="matrix(48,0,0,48,555.887,422.973)">
                <path d="M0.406,-0.063C0.374,-0.038 0.342,-0.019 0.312,-0.007C0.282,0.006 0.248,0.012 0.211,0.012C0.177,0.012 0.147,0.005 0.121,-0.008C0.095,-0.022 0.075,-0.04 0.061,-0.063C0.047,-0.086 0.04,-0.111 0.04,-0.138C0.04,-0.175 0.052,-0.206 0.075,-0.231C0.098,-0.257 0.13,-0.274 0.17,-0.283C0.178,-0.285 0.199,-0.29 0.233,-0.296C0.266,-0.303 0.295,-0.309 0.319,-0.315C0.343,-0.321 0.369,-0.328 0.397,-0.336C0.395,-0.371 0.388,-0.397 0.376,-0.413C0.363,-0.43 0.337,-0.438 0.298,-0.438C0.264,-0.438 0.239,-0.433 0.221,-0.424C0.204,-0.414 0.19,-0.4 0.177,-0.381C0.165,-0.362 0.157,-0.35 0.152,-0.344C0.147,-0.338 0.136,-0.335 0.119,-0.335C0.104,-0.335 0.091,-0.34 0.08,-0.349C0.069,-0.359 0.064,-0.371 0.064,-0.386C0.064,-0.41 0.072,-0.432 0.089,-0.455C0.105,-0.477 0.131,-0.495 0.167,-0.509C0.202,-0.524 0.245,-0.531 0.298,-0.531C0.356,-0.531 0.403,-0.524 0.436,-0.51C0.47,-0.496 0.493,-0.474 0.507,-0.444C0.521,-0.414 0.528,-0.375 0.528,-0.325C0.528,-0.294 0.528,-0.267 0.528,-0.246C0.527,-0.224 0.527,-0.2 0.527,-0.173C0.527,-0.148 0.531,-0.122 0.539,-0.094C0.548,-0.067 0.552,-0.05 0.552,-0.042C0.552,-0.028 0.545,-0.016 0.532,-0.005C0.52,0.007 0.505,0.012 0.489,0.012C0.475,0.012 0.462,0.006 0.448,-0.007C0.435,-0.02 0.421,-0.039 0.406,-0.063ZM0.397,-0.256C0.377,-0.249 0.349,-0.241 0.312,-0.233C0.274,-0.225 0.249,-0.219 0.234,-0.216C0.22,-0.212 0.206,-0.205 0.193,-0.194C0.18,-0.183 0.174,-0.167 0.174,-0.148C0.174,-0.128 0.181,-0.111 0.197,-0.096C0.212,-0.082 0.232,-0.075 0.257,-0.075C0.283,-0.075 0.308,-0.081 0.33,-0.093C0.352,-0.104 0.368,-0.119 0.379,-0.137C0.391,-0.157 0.397,-0.191 0.397,-0.237L0.397,-0.256Z" style="fill-rule:nonzero;"/>
            </g>
            <g transform="matrix(48,0,0,48,596.41,422.973)">
                <path d="M0.192,-0.455L0.192,-0.439C0.217,-0.47 0.243,-0.493 0.27,-0.507C0.297,-0.522 0.328,-0.529 0.362,-0.529C0.403,-0.529 0.441,-0.518 0.475,-0.497C0.51,-0.476 0.537,-0.445 0.557,-0.404C0.577,-0.364 0.587,-0.315 0.587,-0.26C0.587,-0.219 0.581,-0.181 0.57,-0.147C0.558,-0.112 0.542,-0.084 0.522,-0.06C0.502,-0.037 0.478,-0.019 0.45,-0.007C0.423,0.006 0.393,0.012 0.362,0.012C0.324,0.012 0.292,0.005 0.266,-0.011C0.24,-0.026 0.215,-0.049 0.192,-0.078L0.192,0.122C0.192,0.181 0.171,0.21 0.128,0.21C0.103,0.21 0.086,0.202 0.078,0.187C0.07,0.172 0.066,0.15 0.066,0.121L0.066,-0.454C0.066,-0.479 0.071,-0.498 0.083,-0.511C0.094,-0.524 0.109,-0.53 0.128,-0.53C0.147,-0.53 0.162,-0.523 0.174,-0.51C0.186,-0.498 0.192,-0.479 0.192,-0.455ZM0.453,-0.261C0.453,-0.296 0.448,-0.327 0.437,-0.352C0.426,-0.377 0.411,-0.396 0.392,-0.41C0.373,-0.423 0.352,-0.43 0.329,-0.43C0.292,-0.43 0.261,-0.416 0.236,-0.387C0.211,-0.358 0.198,-0.315 0.198,-0.259C0.198,-0.206 0.211,-0.164 0.236,-0.135C0.261,-0.106 0.292,-0.091 0.329,-0.091C0.351,-0.091 0.372,-0.097 0.391,-0.11C0.41,-0.123 0.425,-0.142 0.436,-0.168C0.447,-0.194 0.453,-0.225 0.453,-0.261Z" style="fill-rule:nonzero;"/>
            </g>
            <g transform="matrix(48,0,0,48,626.41,422.973)">
                <path d="M0.201,-0.18L0.201,-0.069C0.201,-0.042 0.195,-0.022 0.182,-0.008C0.169,0.005 0.153,0.012 0.134,0.012C0.115,0.012 0.099,0.005 0.086,-0.008C0.074,-0.022 0.068,-0.042 0.068,-0.069L0.068,-0.44C0.068,-0.5 0.09,-0.53 0.133,-0.53C0.155,-0.53 0.171,-0.523 0.181,-0.509C0.19,-0.495 0.196,-0.474 0.197,-0.447C0.213,-0.474 0.229,-0.495 0.246,-0.509C0.263,-0.523 0.285,-0.53 0.313,-0.53C0.341,-0.53 0.368,-0.523 0.395,-0.509C0.421,-0.495 0.434,-0.476 0.434,-0.453C0.434,-0.437 0.428,-0.423 0.417,-0.413C0.406,-0.402 0.394,-0.397 0.381,-0.397C0.376,-0.397 0.364,-0.4 0.345,-0.406C0.327,-0.412 0.31,-0.415 0.296,-0.415C0.276,-0.415 0.26,-0.41 0.248,-0.4C0.236,-0.389 0.226,-0.374 0.219,-0.354C0.212,-0.334 0.208,-0.31 0.205,-0.282C0.202,-0.254 0.201,-0.22 0.201,-0.18Z" style="fill-rule:nonzero;"/>
            </g>
            <g transform="matrix(48,0,0,48,645.605,422.973)">
                <path d="M0.568,-0.259C0.568,-0.219 0.562,-0.182 0.549,-0.149C0.537,-0.115 0.519,-0.087 0.496,-0.063C0.472,-0.038 0.444,-0.02 0.412,-0.007C0.379,0.006 0.342,0.012 0.302,0.012C0.261,0.012 0.225,0.006 0.193,-0.007C0.161,-0.02 0.133,-0.039 0.109,-0.063C0.086,-0.087 0.068,-0.116 0.055,-0.149C0.043,-0.182 0.037,-0.219 0.037,-0.259C0.037,-0.299 0.043,-0.336 0.056,-0.37C0.068,-0.403 0.086,-0.432 0.109,-0.456C0.132,-0.479 0.16,-0.498 0.193,-0.51C0.226,-0.523 0.262,-0.53 0.302,-0.53C0.342,-0.53 0.379,-0.523 0.412,-0.51C0.444,-0.497 0.473,-0.479 0.496,-0.455C0.52,-0.431 0.537,-0.402 0.55,-0.369C0.562,-0.335 0.568,-0.299 0.568,-0.259ZM0.434,-0.259C0.434,-0.313 0.422,-0.355 0.398,-0.386C0.374,-0.416 0.342,-0.431 0.302,-0.431C0.276,-0.431 0.253,-0.424 0.233,-0.411C0.213,-0.397 0.198,-0.377 0.187,-0.351C0.176,-0.325 0.171,-0.294 0.171,-0.259C0.171,-0.224 0.176,-0.194 0.187,-0.167C0.197,-0.141 0.212,-0.122 0.232,-0.108C0.252,-0.094 0.275,-0.087 0.302,-0.087C0.342,-0.087 0.374,-0.102 0.398,-0.133C0.422,-0.163 0.434,-0.205 0.434,-0.259Z" style="fill-rule:nonzero;"/>
            </g>
        </g>
        <g transform="matrix(0.855856,0,0,0.958333,840.297,308.042)">
            <rect x="342" y="121" width="111" height="72" style="fill:none;stroke:url(#_Linear1);stroke-width:5.5px;"/>
        </g>
    </g>
    <defs>
        <linearGradient id="_Linear1" x1="0" y1="0" x2="1" y2="0" gradientUnits="userSpaceOnUse" gradientTransform="matrix(111,0,0,72,342,157)"><stop offset="0" style="stop-color:rgb(255,169,0);stop-opacity:1"/><stop offset="1" style="stop-color:rgb(255,15,54);stop-opacity:1"/></linearGradient>
    </defs>
</svg>
